<svg width="44" height="35" viewBox="0 0 44 35" fill="none" xmlns="http://www.w3.org/2000/svg">
<path fill-rule="evenodd" clip-rule="evenodd" d="M9.13894 0C6.62836 0 4.77065 2.19424 4.85384 4.57383C4.93367 6.85997 4.82995 9.82086 4.08349 12.2355C3.33437 14.6568 2.06834 16.1913 0 16.3882V18.6118C2.06834 18.8092 3.33437 20.3428 4.08341 22.7645C4.82995 25.1791 4.93359 28.14 4.85375 30.4262C4.77056 32.8054 6.62827 35 9.13928 35H34.8644C37.375 35 39.2324 32.8058 39.1492 30.4262C39.0693 28.14 39.1731 25.1791 39.9195 22.7645C40.6686 20.3428 41.9316 18.8086 44 18.6118V16.3882C41.9317 16.1908 40.6687 14.6572 39.9195 12.2355C39.173 9.8212 39.0693 6.85997 39.1492 4.57383C39.2324 2.19458 37.375 0 34.8644 0H9.13859H9.13894ZM29.8305 21.5448C29.8305 24.8214 27.383 26.8086 23.3211 26.8086H16.4068C16.209 26.8086 16.0193 26.7301 15.8794 26.5904C15.7396 26.4508 15.661 26.2614 15.661 26.0639V8.93621C15.661 8.73871 15.7396 8.5493 15.8794 8.40964C16.0193 8.26999 16.209 8.19153 16.4068 8.19153H23.2818C26.6686 8.19153 28.8914 10.0235 28.8914 12.8361C28.8914 14.8102 27.3961 16.5775 25.4911 16.8871V16.9901C28.0844 17.2741 29.8305 19.0676 29.8305 21.5448V21.5448ZM22.5672 10.5522H18.6247V16.1128H21.9453C24.5122 16.1128 25.9276 15.0807 25.9276 13.2358C25.9273 11.5068 24.7105 10.5522 22.5672 10.5522ZM18.6247 18.3192V24.4472H22.7122C25.3849 24.4472 26.8006 23.3763 26.8006 21.3638C26.8006 19.3513 25.3452 18.3188 22.5404 18.3188H18.6247V18.3192Z" fill="white"/>
</svg>
