<svg width="35" height="35" viewBox="0 0 35 35" fill="none" xmlns="http://www.w3.org/2000/svg">
<path d="M33 0L30.1758 31.4963L17.481 35L4.82119 31.5013L2 0H33Z" fill="#264DE4"/>
<path d="M27.758 29.4907L30.1715 2.57568H17.5V32.3219L27.758 29.4907Z" fill="#2965F1"/>
<path d="M8.46753 14.259L8.81536 18.1225H17.5V14.259H8.46753Z" fill="#EBEBEB"/>
<path d="M17.5 6.43921H17.4866H7.76862L8.1214 10.3028H17.5V6.43921Z" fill="#EBEBEB"/>
<path d="M17.5 28.3125V24.2929L17.483 24.2974L13.1609 23.1355L12.8846 20.0542H10.7843H8.98877L9.53248 26.1205L17.4822 28.3175L17.5 28.3125Z" fill="#EBEBEB"/>
<path d="M22.2654 18.1225L21.815 23.1332L17.4866 24.2962V28.3157L25.4426 26.1206L25.5009 25.4678L26.4129 15.2965L26.5076 14.259L27.2082 6.43921H17.4866V10.3028H22.9551L22.602 14.259H17.4866V18.1225H22.2654Z" fill="white"/>
</svg>
