<svg width="40" height="16" viewBox="0 0 40 16" fill="none" xmlns="http://www.w3.org/2000/svg">
<path d="M3.01868 4.70234C2.94078 4.70234 2.9213 4.66339 2.96026 4.60496L3.36924 4.07913C3.40819 4.0207 3.50557 3.98175 3.58347 3.98175H10.5362C10.6141 3.98175 10.6336 4.04018 10.5946 4.0986L10.2635 4.60496C10.2246 4.66339 10.1272 4.72181 10.0688 4.72181L3.01868 4.70234ZM0.0779015 6.49407C0 6.49407 -0.0194754 6.45512 0.0194754 6.39669L0.428458 5.87086C0.467409 5.81243 0.564786 5.77348 0.642687 5.77348H9.52345C9.60136 5.77348 9.64031 5.83191 9.62083 5.89033L9.46503 6.35774C9.44555 6.43565 9.36765 6.4746 9.28975 6.4746L0.0779015 6.49407ZM4.79094 8.2858C4.71304 8.2858 4.69356 8.22738 4.73251 8.16895L5.00517 7.68207C5.04412 7.62364 5.12202 7.56522 5.19992 7.56522H9.095C9.1729 7.56522 9.21185 7.62364 9.21185 7.70154L9.1729 8.16895C9.1729 8.24685 9.095 8.30528 9.03657 8.30528L4.79094 8.2858ZM25.0064 4.35178C23.7794 4.66339 22.942 4.89709 21.7345 5.2087C21.4424 5.2866 21.4229 5.30607 21.1697 5.01394C20.8776 4.68286 20.6634 4.46863 20.2544 4.27388C19.0274 3.67014 17.8394 3.84542 16.7293 4.56601C15.405 5.42293 14.7234 6.68882 14.7429 8.26633C14.7623 9.82436 15.8335 11.1097 17.372 11.324C18.6964 11.4992 19.8064 11.0318 20.6828 10.0386C20.8581 9.82436 21.0139 9.59065 21.2087 9.318H17.4499C17.0409 9.318 16.9436 9.06482 17.0799 8.73374C17.3331 8.13 17.8005 7.11728 18.0731 6.61092C18.1316 6.49407 18.2679 6.29932 18.56 6.29932H25.6491C25.6101 6.82515 25.6101 7.35099 25.5322 7.87682C25.318 9.27905 24.7921 10.5644 23.9352 11.694C22.533 13.5442 20.7023 14.6932 18.3847 15.0048C16.4762 15.258 14.7039 14.888 13.1459 13.7194C11.7047 12.6288 10.8867 11.1876 10.6725 9.3959C10.4193 7.27309 11.0425 5.3645 12.3279 3.68962C13.7107 1.87841 15.5413 0.729364 17.781 0.320381C19.6117 -0.0107002 21.3645 0.203529 22.942 1.27467C23.9742 1.95631 24.7142 2.89113 25.2011 4.0207C25.318 4.19598 25.2401 4.29335 25.0064 4.35178Z" fill="#00ACD7"/>
<path d="M31.4527 15C29.6804 14.9609 28.064 14.4526 26.7007 13.2798C25.5516 12.2828 24.8311 11.0122 24.5973 9.50702C24.2468 7.29811 24.8505 5.34331 26.1748 3.60355C27.5966 1.72695 29.3104 0.749551 31.6279 0.339045C33.6144 -0.0128181 35.4841 0.182661 37.1784 1.33599C38.717 2.39158 39.6713 3.81858 39.9244 5.69518C40.2555 8.33415 39.496 10.4844 37.6848 12.3219C36.3994 13.6316 34.8219 14.4526 33.0107 14.8241C32.4849 14.9218 31.959 14.9413 31.4527 15V15ZM36.0878 7.10263C36.0683 6.8485 36.0683 6.65302 36.0294 6.45755C35.6788 4.5223 33.9066 3.42762 32.0564 3.85767C30.2452 4.26818 29.0767 5.4215 28.6482 7.25901C28.2977 8.78375 29.0377 10.328 30.44 10.9536C31.5111 11.4227 32.5822 11.3641 33.6144 10.8363C35.153 10.0348 35.9904 8.78375 36.0878 7.10263V7.10263Z" fill="#00ACD7"/>
</svg>
