<svg width="43" height="19" viewBox="0 0 43 19" fill="none" xmlns="http://www.w3.org/2000/svg">
<path d="M14.4778 2.92566C18.4061 2.92566 18.4061 2.92566 18.7271 2.96606C18.7342 2.96695 18.7414 2.96784 18.7487 2.96876C19.0389 3.00541 19.3251 3.06507 19.6035 3.15576C19.6159 3.15975 19.6282 3.16375 19.6409 3.16786C20.0532 3.30354 20.4566 3.5108 20.7739 3.8132C20.7876 3.82488 20.8014 3.83653 20.8152 3.84813C21.1376 4.13409 21.3493 4.54163 21.4675 4.95276C21.4715 4.9668 21.4715 4.9668 21.4756 4.98111C21.6311 5.53531 21.6376 6.16977 21.5 6.72785C21.4973 6.7385 21.4947 6.74915 21.492 6.76013C21.3773 7.21314 21.1477 7.61874 20.8281 7.95507C20.8219 7.96159 20.8158 7.9681 20.8095 7.97481C20.7225 8.06645 20.6334 8.15073 20.5323 8.22617C20.5143 8.23964 20.4964 8.25335 20.4786 8.2671C20.0035 8.62755 19.41 8.77727 18.8304 8.84935C18.8057 8.85297 18.7823 8.85784 18.7583 8.86453C18.8764 9.06411 18.9951 9.26333 19.1147 9.46206C19.1492 9.51944 19.1837 9.57685 19.2181 9.63426C19.2373 9.66623 19.2565 9.69819 19.2757 9.73016C19.2834 9.74294 19.2911 9.75573 19.2988 9.76851C19.3026 9.77484 19.3064 9.78116 19.3103 9.78768C19.6902 10.4205 20.0702 11.0533 21.5555 13.5269C21.5593 13.5332 21.5631 13.5395 21.567 13.546C21.5747 13.5588 21.5824 13.5716 21.5901 13.5844C21.6091 13.6162 21.6282 13.648 21.6473 13.6797C21.6832 13.7395 21.719 13.7992 21.7548 13.859C21.7717 13.8872 21.7886 13.9153 21.8054 13.9435C21.8135 13.9568 21.8215 13.9702 21.8295 13.9836C21.8406 14.0022 21.8517 14.0208 21.8629 14.0394C21.8692 14.0499 21.8755 14.0605 21.882 14.0714C21.8957 14.0936 21.9101 14.1154 21.925 14.1369C21.9443 14.1679 21.9443 14.1679 21.9443 14.2007C21.4829 14.2007 21.0216 14.2007 20.5463 14.2007C20.4927 14.1067 20.439 14.0127 20.3838 13.9159C20.3555 13.8672 20.3271 13.8185 20.2984 13.77C20.2417 13.6735 20.1853 13.5768 20.1293 13.4799C20.0677 13.3735 20.0058 13.2674 19.9429 13.1619C19.8715 13.042 19.8017 12.9214 19.7321 12.8005C19.6953 12.7364 19.6582 12.6725 19.6211 12.6085C19.6173 12.6018 19.6134 12.5951 19.6094 12.5883C19.5465 12.4797 19.4831 12.3714 19.4196 12.2632C19.3665 12.1728 19.314 12.0822 19.2615 11.9915C19.2039 11.8918 19.1457 11.7925 19.0868 11.6936C19.0154 11.5738 18.9456 11.4532 18.8761 11.3323C18.8389 11.2678 18.8017 11.2033 18.7644 11.1389C18.7605 11.1322 18.7566 11.1255 18.7526 11.1186C18.6918 11.0136 18.6301 10.9092 18.5681 10.805C18.5035 10.6965 18.4405 10.5871 18.3776 10.4776C18.3405 10.4131 18.3032 10.3486 18.2659 10.2842C18.262 10.2775 18.2581 10.2708 18.2541 10.2639C18.1933 10.1589 18.1317 10.0545 18.0696 9.95032C18.0051 9.84181 17.942 9.73242 17.8791 9.62295C17.842 9.55842 17.8047 9.49395 17.7674 9.42952C17.7636 9.4229 17.7597 9.41628 17.7558 9.40946C17.6917 9.29891 17.6269 9.1889 17.5614 9.07918C17.5551 9.06853 17.5487 9.05788 17.5422 9.04691C17.5366 9.03757 17.531 9.02823 17.5253 9.01861C17.5168 9.00406 17.5087 8.98923 17.5012 8.9741C16.8826 8.97049 16.2639 8.96687 15.6265 8.96315C15.6265 10.6916 15.6265 12.42 15.6265 14.2007C15.2474 14.2007 14.8683 14.2007 14.4778 14.2007C14.4778 10.48 14.4778 6.75919 14.4778 2.92566ZM15.6265 3.98852C15.6265 5.2794 15.6265 6.57028 15.6265 7.90028C16.0089 7.90096 16.3913 7.90164 16.7853 7.90234C16.9654 7.90279 16.9654 7.90279 17.1492 7.90325C17.2583 7.90336 17.2583 7.90336 17.3673 7.90342C17.4153 7.90345 17.4633 7.90357 17.5113 7.90375C18.3334 7.90672 19.2506 7.82656 19.8704 7.21477C19.8831 7.20155 19.8831 7.20155 19.8961 7.18806C19.9022 7.18258 19.9082 7.1771 19.9144 7.17145C20.217 6.88774 20.3352 6.42359 20.3525 6.02088C20.3675 5.53199 20.2282 5.06184 19.9009 4.69664C19.4048 4.16716 18.6314 4.01092 17.9368 3.98749C17.7757 3.98346 17.6145 3.98457 17.4534 3.98519C17.3952 3.98538 17.337 3.98539 17.2788 3.98541C17.11 3.98558 16.9412 3.98604 16.7725 3.98647C16.3943 3.98714 16.0161 3.98782 15.6265 3.98852Z" fill="white"/>
<path d="M8.00835 6.58537C8.01976 6.58689 8.03118 6.58842 8.04294 6.58999C8.89818 6.709 9.66506 7.15918 10.2109 7.83176C10.2175 7.83988 10.2241 7.84801 10.231 7.85637C10.3166 7.96163 10.3166 7.96163 10.3166 7.9879C10.3237 7.9879 10.3309 7.9879 10.3382 7.9879C10.3382 7.57569 10.3382 7.16347 10.3382 6.73877C10.6851 6.73877 11.032 6.73877 11.3894 6.73877C11.3897 7.08588 11.3897 7.08588 11.3898 7.22057C11.3898 7.23315 11.3898 7.23315 11.3898 7.24598C11.3902 7.8017 11.3905 8.35742 11.3908 8.91314C11.3908 8.92388 11.3908 8.93462 11.3908 8.94569C11.3909 9.17926 11.391 9.41282 11.3911 9.64638C11.3911 9.76094 11.3911 9.8755 11.3912 9.99005C11.3912 10.0015 11.3912 10.0129 11.3912 10.0246C11.3913 10.3934 11.3916 10.7622 11.3919 11.131C11.3922 11.5103 11.3924 11.8896 11.3924 12.2689C11.3925 12.3226 11.3925 12.3763 11.3925 12.43C11.3925 12.4406 11.3925 12.4512 11.3925 12.4621C11.3925 12.6315 11.3927 12.8009 11.3929 12.9703C11.3931 13.1411 11.3931 13.3118 11.3931 13.4826C11.3931 13.5749 11.3931 13.6672 11.3933 13.7596C11.3947 14.525 11.3612 15.3072 11.0535 16.0196C11.0498 16.0281 11.0462 16.0366 11.0424 16.0453C10.9119 16.3454 10.7311 16.6181 10.5127 16.8598C10.493 16.8818 10.4742 16.9043 10.4554 16.927C10.3595 17.0379 10.2458 17.1328 10.1298 17.2213C10.1171 17.231 10.1045 17.2407 10.0919 17.2505C9.55205 17.6699 8.91743 17.8935 8.2473 17.9782C8.22602 17.9809 8.20476 17.9837 8.1835 17.9865C7.94953 18.0159 7.71465 18.0173 7.47922 18.0179C7.45485 18.018 7.43047 18.0181 7.4061 18.0182C6.52507 18.0225 5.64409 17.8324 4.34554 16.962C4.33989 16.9572 4.33424 16.9524 4.32842 16.9475C4.22214 16.8576 4.12054 16.763 4.02044 16.6661C4.01415 16.6601 4.00786 16.654 4.00137 16.6478C3.98437 16.6314 3.9675 16.6149 3.95068 16.5983C3.94131 16.5891 3.93193 16.5799 3.92228 16.5704C3.90096 16.5453 3.89388 16.5341 3.8904 16.5017C3.91137 16.4767 3.93173 16.4554 3.95542 16.4333C3.96861 16.4205 3.98177 16.4077 3.99492 16.3949C4.00444 16.3856 4.00444 16.3856 4.01416 16.3762C4.03437 16.3562 4.05299 16.3353 4.07124 16.3134C4.1082 16.2694 4.14876 16.2294 4.18938 16.1888C4.21841 16.1591 4.24526 16.128 4.2721 16.0963C4.30165 16.0627 4.33356 16.0317 4.36518 16.0001C4.38669 15.978 4.40689 15.9555 4.42682 15.932C4.46197 15.8905 4.49984 15.8524 4.53832 15.8141C4.56772 15.7839 4.59491 15.7522 4.62179 15.7197C4.63813 15.7019 4.63813 15.7019 4.67064 15.6799C4.6766 15.6874 4.6766 15.6874 4.68268 15.695C4.76605 15.7987 4.84986 15.9013 4.94156 15.9977C4.94748 16.0039 4.95341 16.0102 4.95951 16.0166C5.03961 16.1003 5.12151 16.178 5.21248 16.2497C5.22391 16.2591 5.23532 16.2685 5.24672 16.2779C5.40188 16.405 5.56995 16.5119 5.74348 16.6113C5.75302 16.6169 5.75302 16.6169 5.76276 16.6226C6.23021 16.8951 6.80077 17.0384 7.33905 17.0409C7.35023 17.041 7.3614 17.041 7.37291 17.0411C8.1998 17.0455 9.01115 16.8864 9.62301 16.2826C9.64988 16.2545 9.67446 16.2252 9.69887 16.1949C9.70838 16.1837 9.71789 16.1724 9.7274 16.1611C10.2145 15.5744 10.3317 14.7925 10.3329 14.0503C10.333 14.006 10.3333 13.9618 10.3335 13.9175C10.334 13.8343 10.3343 13.7511 10.3346 13.6678C10.3349 13.5728 10.3353 13.4778 10.3358 13.3828C10.3368 13.1879 10.3376 12.9931 10.3382 12.7982C10.3017 12.8341 10.2724 12.8724 10.2434 12.9146C10.1762 13.011 10.1043 13.1014 10.0256 13.1886C10.005 13.2115 9.98496 13.2348 9.96505 13.2584C9.88399 13.352 9.79513 13.4331 9.69887 13.5104C9.6907 13.5173 9.68253 13.5243 9.67411 13.5314C9.46573 13.7067 9.22465 13.8389 8.97281 13.9377C8.96391 13.9413 8.95502 13.9449 8.94585 13.9485C8.62048 14.0783 8.27049 14.1609 7.92165 14.1897C7.90466 14.1912 7.90466 14.1912 7.88732 14.1926C7.77812 14.2009 7.66944 14.2029 7.55998 14.2028C7.54644 14.2027 7.54644 14.2027 7.53264 14.2027C6.63058 14.2005 5.75333 13.8999 5.04993 13.3241C5.0436 13.319 5.03728 13.3139 5.03076 13.3086C4.93053 13.2265 4.83919 13.1352 4.74785 13.0433C4.73917 13.0346 4.73917 13.0346 4.7303 13.0258C4.65477 12.95 4.5845 12.8722 4.51893 12.7872C4.513 12.7796 4.50706 12.7719 4.50095 12.764C4.06159 12.19 3.79237 11.5056 3.72785 10.782C3.72682 10.7707 3.72579 10.7593 3.72473 10.7477C3.71564 10.6356 3.71482 10.5239 3.71498 10.4115C3.715 10.4016 3.71501 10.3916 3.71502 10.3814C3.71754 9.42609 4.04513 8.48369 4.68148 7.76876C4.68948 7.75974 4.68948 7.75974 4.69764 7.75055C4.80207 7.63334 4.90845 7.51853 5.03088 7.42031C5.06179 7.39538 5.0917 7.36949 5.12172 7.34348C5.64175 6.9062 6.30262 6.65948 6.96802 6.57441C6.97808 6.57311 6.98813 6.57181 6.9985 6.57047C7.33131 6.52981 7.6766 6.5406 8.00835 6.58537ZM5.90603 8.13035C5.9 8.13531 5.89397 8.14028 5.88777 8.14539C5.74659 8.26268 5.61754 8.38992 5.50507 8.53577C5.49568 8.54746 5.48627 8.55913 5.47683 8.57078C5.28203 8.81331 5.13821 9.0883 5.02825 9.37948C5.02499 9.38812 5.02172 9.39675 5.01836 9.40565C4.96362 9.55345 4.92855 9.70703 4.89821 9.86161C4.89624 9.87161 4.89426 9.88161 4.89223 9.89192C4.83432 10.2041 4.83666 10.5698 4.89821 10.8806C4.90013 10.8909 4.90205 10.9012 4.90402 10.9117C4.95861 11.2009 5.05411 11.4754 5.1908 11.7353C5.19485 11.7431 5.1989 11.7509 5.20307 11.759C5.29061 11.9274 5.39484 12.0826 5.51591 12.2284C5.52059 12.2341 5.52528 12.2398 5.53011 12.2457C5.64154 12.3813 5.75841 12.5022 5.89519 12.6119C5.90451 12.6199 5.91382 12.6278 5.92342 12.636C6.00362 12.7045 6.08829 12.7635 6.17694 12.8201C6.18746 12.8268 6.18746 12.8268 6.19818 12.8337C6.53731 13.0479 6.91641 13.1845 7.3148 13.2255C7.32525 13.2267 7.33569 13.2279 7.34646 13.2292C8.08153 13.3019 8.84448 13.0607 9.41428 12.5892C9.45071 12.5578 9.4863 12.5255 9.52163 12.4928C9.5435 12.4728 9.56582 12.4536 9.58847 12.4345C9.81122 12.2369 9.98701 11.9727 10.1114 11.7025C10.1217 11.6801 10.1323 11.658 10.143 11.6358C10.3208 11.258 10.3755 10.8454 10.3741 10.4314C10.3741 10.4191 10.3741 10.4067 10.3741 10.394C10.3736 10.2111 10.3695 10.0313 10.3382 9.85065C10.3364 9.83972 10.3345 9.82878 10.3326 9.81752C10.2525 9.36213 10.0813 8.92231 9.7964 8.55768C9.78492 8.5429 9.78492 8.5429 9.7732 8.52781C9.31766 7.95287 8.65404 7.61182 7.93384 7.53044C7.19301 7.4546 6.48439 7.6533 5.90603 8.13035Z" fill="white"/>
<path d="M38.0328 2.63725C38.0532 2.63728 38.0532 2.63728 38.0742 2.63732C38.291 2.63792 38.5045 2.64384 38.7195 2.67355C38.7312 2.67514 38.7312 2.67514 38.7432 2.67677C39.6112 2.79636 40.4744 3.09183 41.8297 4.30619C41.8381 4.31626 41.8465 4.32633 41.8551 4.3367C41.8673 4.35143 41.8673 4.35143 41.8798 4.36645C41.8871 4.37515 41.8944 4.38385 41.9019 4.39282C41.9067 4.40039 41.9114 4.40796 41.9164 4.41576C41.9024 4.45797 41.8781 4.4707 41.8432 4.49452C41.7752 4.54224 41.7091 4.59214 41.6434 4.64312C41.5367 4.72577 41.4288 4.80662 41.3203 4.88692C41.2856 4.9127 41.2508 4.93849 41.216 4.96431C41.2076 4.97056 41.1992 4.9768 41.1905 4.98324C41.1471 5.01558 41.104 5.04829 41.0613 5.08163C41.0486 5.09158 41.0486 5.09158 41.0356 5.10172C41.0194 5.11441 41.0032 5.12714 40.9871 5.13993C40.98 5.14556 40.9728 5.1512 40.9654 5.15701C40.9591 5.162 40.9528 5.16699 40.9463 5.17213C40.9302 5.18277 40.9302 5.18277 40.9085 5.18277C40.893 5.16185 40.8787 5.14095 40.8645 5.11908C40.7819 4.99527 40.685 4.88544 40.5834 4.77735C40.5749 4.76828 40.5664 4.75922 40.5577 4.74987C40.5073 4.6976 40.454 4.65085 40.3977 4.60533C40.3773 4.58875 40.3572 4.57184 40.3375 4.55457C40.1775 4.41496 39.9969 4.30268 39.814 4.19661C39.8029 4.1901 39.8029 4.1901 39.7915 4.18345C39.4515 3.98715 39.068 3.85516 38.6863 3.77202C38.6772 3.76997 38.668 3.76793 38.6585 3.76582C38.4471 3.72203 38.2359 3.70879 38.0206 3.71038C38.0083 3.71043 37.9961 3.71048 37.9835 3.71053C37.7827 3.71143 37.5857 3.71986 37.3866 3.74736C37.3662 3.7501 37.3662 3.7501 37.3453 3.75288C36.8679 3.8184 36.4058 3.96007 35.9779 4.18521C35.9546 4.19743 35.9312 4.20941 35.9078 4.2214C35.45 4.45782 35.0096 4.79425 34.6774 5.19373C34.6691 5.20339 34.6607 5.21305 34.6521 5.22301C34.0302 5.94614 33.6515 6.88741 33.4935 8.55009C33.4935 8.56399 33.4935 8.57788 33.4935 8.5922C33.4937 8.81271 33.5001 9.0292 33.5288 9.24794C33.5302 9.25885 33.5302 9.25885 33.5316 9.26999C33.6011 9.80036 33.7406 10.3177 33.9622 10.8039C33.9668 10.8141 33.9714 10.8243 33.9761 10.8348C34.1159 11.1461 34.2933 11.4454 34.5041 11.7133C34.5093 11.72 34.5145 11.7266 34.5198 11.7335C34.5891 11.8219 34.6603 11.9076 34.7364 11.9901C34.763 12.0189 34.789 12.0482 34.8149 12.0777C34.876 12.1463 34.9395 12.2112 35.0089 12.2713C35.0291 12.2889 35.0491 12.3067 35.069 12.3248C35.9668 13.132 37.1183 13.4428 38.4078 13.4078C39.2914 13.348 40.1091 13.013 40.7392 12.3804C40.7491 12.3704 40.7591 12.3605 40.7693 12.3503C40.8347 12.2838 40.8944 12.2143 40.9519 12.1407C40.9583 12.1325 40.9648 12.1244 40.9714 12.1161C41.0687 11.9933 41.1583 11.8661 41.2445 11.7353C41.3034 11.7678 41.3571 11.8046 41.4111 11.8448C41.4284 11.8576 41.4458 11.8704 41.4632 11.8832C41.4719 11.8896 41.4806 11.896 41.4896 11.9026C41.5287 11.9312 41.5681 11.9593 41.6075 11.9873C41.6704 12.032 41.7329 12.0772 41.7951 12.1229C41.8839 12.1879 41.9735 12.2516 42.0635 12.315C42.1049 12.3442 42.1462 12.3738 42.1873 12.4036C42.1699 12.4604 42.1349 12.5021 42.0992 12.5481C42.0896 12.5606 42.0896 12.5606 42.0799 12.5734C42.0615 12.5972 42.0431 12.621 42.0247 12.6447C42.0168 12.655 42.0089 12.6653 42.0007 12.6759C41.7996 12.9338 41.5736 13.1728 41.3203 13.3788C41.314 13.384 41.3076 13.3892 41.3011 13.3946C41.0447 13.6029 40.7617 13.7826 40.4654 13.9265C40.4408 13.9385 40.4164 13.9508 40.3919 13.9631C39.8605 14.2282 39.2751 14.3906 38.687 14.4561C38.679 14.457 38.671 14.4579 38.6628 14.4588C38.461 14.4809 38.2607 14.4882 38.0578 14.4883C38.0389 14.4883 38.0389 14.4883 38.0196 14.4883C37.5347 14.4879 37.0565 14.4348 36.5847 14.3212C36.5712 14.3179 36.5576 14.3147 36.5437 14.3113C36.1196 14.207 35.7179 14.0465 35.3276 13.85C35.3165 13.8445 35.3054 13.8389 35.294 13.8332C34.9247 13.6471 34.5783 13.4162 34.2656 13.1439C34.2344 13.117 34.2028 13.091 34.1708 13.0652C34.1239 13.0266 34.0813 12.9855 34.0392 12.9417C34.0185 12.9208 33.9974 12.9015 33.9751 12.8823C33.8918 12.81 33.8141 12.7297 33.7429 12.6452C33.7195 12.6178 33.6953 12.5912 33.671 12.5646C33.6177 12.5054 33.5671 12.4444 33.5179 12.3817C33.5124 12.3748 33.507 12.3679 33.5013 12.3607C33.3444 12.1615 33.2028 11.954 33.0736 11.7353C33.0683 11.7264 33.0631 11.7175 33.0576 11.7084C32.6234 10.9739 32.3651 10.1483 32.2473 8.23576C32.2478 8.2256 32.2482 8.21545 32.2487 8.20498C32.2751 7.64538 32.3689 7.09585 32.5426 6.56339C32.5478 6.54736 32.5478 6.54736 32.5531 6.53099C32.8013 5.76973 33.2117 5.0728 33.7455 4.4815C33.7543 4.47153 33.7632 4.46156 33.7723 4.45129C33.8736 4.33798 33.9781 4.22509 34.0936 4.12642C34.1183 4.10519 34.1421 4.08311 34.1661 4.06102C34.2174 4.01435 34.2698 3.9696 34.3237 3.92611C34.3361 3.91613 34.3483 3.90607 34.3606 3.89596C35.1062 3.28058 36.0382 2.88031 37.2491 2.68176C37.2617 2.68011 37.2744 2.67845 37.2874 2.67674C37.5351 2.64653 37.7833 2.63646 38.0328 2.63725Z" fill="white"/>
<path d="M23.884 2.92566C27.6292 2.92566 27.6292 2.92566 27.9525 2.96675C27.9598 2.96766 27.967 2.96856 27.9744 2.9695C28.769 3.07019 29.6814 3.36424 30.2018 4.02139C30.2108 4.03249 30.2198 4.0436 30.229 4.05503C30.4134 4.28568 30.5523 4.53987 30.6461 4.82128C30.6506 4.83467 30.6506 4.83467 30.6552 4.84834C30.77 5.19864 30.8112 5.56506 30.8107 5.93276C30.8107 5.94559 30.8107 5.94559 30.8107 5.95868C30.8093 6.64646 30.6468 7.339 30.191 7.86741C30.1855 7.87377 30.18 7.88012 30.1744 7.88666C29.9832 8.10627 29.7585 8.28017 29.5083 8.42624C29.5006 8.43085 29.4928 8.43546 29.4849 8.44021C29.0216 8.71648 28.4863 8.85367 27.9566 8.92206C27.9376 8.92454 27.9376 8.92454 27.9181 8.92707C26.9631 9.04256 25.9946 8.96315 25.0327 8.96315C25.0327 10.6916 25.0327 12.42 25.0327 14.2007C24.6537 14.2007 24.2746 14.2007 23.884 14.2007C23.884 10.48 23.884 6.75919 23.884 2.92566ZM25.0327 3.98852C25.0327 5.2794 25.0327 6.57028 25.0327 7.90028C25.5577 7.9013 25.5577 7.9013 26.0934 7.90234C26.2032 7.90264 26.313 7.90294 26.4261 7.90325C26.526 7.90336 26.526 7.90336 26.626 7.90342C26.6699 7.90345 26.7138 7.90357 26.7577 7.90375C27.2398 7.90566 27.7111 7.87958 28.1754 7.73592C28.1859 7.73267 28.1965 7.72941 28.2074 7.72605C28.6355 7.59108 29.0596 7.35241 29.3024 6.95795C29.3065 6.95137 29.3106 6.94479 29.3149 6.93801C29.5804 6.50841 29.6288 5.95558 29.5219 5.46827C29.4834 5.30565 29.4254 5.15381 29.3457 5.00755C29.3404 4.99761 29.3351 4.98766 29.3296 4.97742C29.0707 4.51729 28.595 4.26107 28.1056 4.12412C27.7353 4.0245 27.3538 3.98649 26.9716 3.98728C26.95 3.98728 26.9284 3.98728 26.9067 3.98727C26.8494 3.98727 26.792 3.98733 26.7347 3.98741C26.6807 3.98747 26.6266 3.98748 26.5726 3.98748C26.4151 3.98754 26.2576 3.98769 26.1001 3.98783C25.5718 3.98817 25.5718 3.98817 25.0327 3.98852Z" fill="white"/>
<path d="M2.93792 1.36034C2.97106 1.37544 2.98614 1.40186 3.00756 1.4311C3.01753 1.44438 3.02753 1.45764 3.03756 1.47087C3.0429 1.47792 3.04824 1.48498 3.05374 1.49225C3.34619 1.8749 3.34619 1.8749 3.768 2.06412C3.89082 2.07835 4.01355 2.07851 4.13692 2.07369C4.15358 2.07304 4.15358 2.07304 4.17058 2.07238C4.30897 2.06649 4.44645 2.05495 4.58393 2.03808C4.56799 2.07537 4.54742 2.09958 4.51901 2.12812C4.51012 2.13711 4.50122 2.1461 4.49206 2.15537C4.47765 2.16977 4.47765 2.16977 4.46295 2.18446C4.45312 2.19437 4.44329 2.20428 4.43316 2.21449C4.40709 2.24077 4.38096 2.26698 4.35481 2.29317C4.32811 2.31994 4.30147 2.34677 4.27483 2.3736C4.2226 2.42618 4.1703 2.47869 4.11795 2.53116C4.12411 2.53793 4.12411 2.53793 4.13039 2.54484C4.17213 2.59219 4.20336 2.64061 4.23381 2.69583C4.42578 3.02884 4.71769 3.39437 5.10324 3.50004C5.72374 3.65282 6.42035 3.58791 7.05256 3.56801C7.24899 3.56186 7.44526 3.55879 7.64179 3.55822C7.66126 3.55816 7.66126 3.55816 7.68113 3.55811C7.69409 3.55807 7.70706 3.55803 7.72041 3.55799C7.74653 3.55792 7.77265 3.55784 7.79877 3.55776C7.8181 3.5577 7.8181 3.5577 7.83783 3.55764C8.03973 3.55693 8.24159 3.55368 8.44346 3.55017C8.51589 3.54893 8.58831 3.54806 8.66074 3.54745C8.77536 3.54648 8.88985 3.5444 9.0044 3.5401C9.05656 3.53817 9.10859 3.53671 9.16079 3.53673C9.37658 3.53644 9.52645 3.51631 9.68592 3.35929C9.75196 3.2911 9.81344 3.21938 9.87224 3.14477C9.85343 3.10406 9.83054 3.07832 9.79867 3.04671C9.79365 3.04169 9.78863 3.03667 9.78345 3.0315C9.7675 3.01556 9.75147 2.99969 9.73542 2.98383C9.71425 2.96282 9.69313 2.94177 9.67201 2.9207C9.65792 2.90674 9.65792 2.90674 9.64354 2.89251C9.62299 2.87083 9.62299 2.87083 9.62299 2.85988C9.63606 2.86293 9.64913 2.86598 9.66259 2.86913C9.8285 2.90382 10.0354 2.92972 10.1864 2.83543C10.3882 2.69245 10.5563 2.48758 10.7156 2.29947C10.7213 2.29285 10.727 2.28623 10.7329 2.27941C10.7435 2.26704 10.7539 2.25457 10.7642 2.24198C10.7784 2.22559 10.7784 2.22559 10.8042 2.20244C10.8495 2.2041 10.8733 2.2354 10.9038 2.26629C10.9093 2.27185 10.9148 2.27741 10.9205 2.28314C10.939 2.3018 10.9574 2.32058 10.9758 2.33936C10.9891 2.35276 11.0023 2.36615 11.0155 2.37953C11.0515 2.4159 11.0874 2.45238 11.1233 2.48887C11.1608 2.52698 11.1983 2.565 11.2359 2.60302C11.3071 2.67506 11.3781 2.74718 11.4491 2.81933C11.53 2.90146 11.611 2.9835 11.6919 3.06553C11.8585 3.23428 12.0249 3.40315 12.1913 3.5721C12.1741 3.61421 12.1477 3.64082 12.116 3.67278C12.1105 3.67837 12.105 3.68396 12.0993 3.68971C12.0809 3.7084 12.0623 3.72702 12.0438 3.74563C12.0306 3.75902 12.0173 3.77241 12.0041 3.78581C11.9681 3.82217 11.9321 3.85846 11.8961 3.89474C11.8584 3.93266 11.8209 3.97065 11.7833 4.00863C11.7121 4.08054 11.6408 4.1524 11.5696 4.22423C11.4884 4.30602 11.4074 4.38787 11.3263 4.46972C11.1596 4.63809 10.9927 4.80639 10.8259 4.97464C10.7456 4.90787 10.7456 4.90787 10.7161 4.86422C10.6093 4.7124 10.4752 4.52281 10.2827 4.48792C10.0663 4.45712 9.83918 4.47976 9.62299 4.50347C9.66525 4.45232 9.70917 4.40386 9.756 4.35696C9.76216 4.35075 9.76832 4.34453 9.77467 4.33813C9.79407 4.31857 9.81351 4.29905 9.83295 4.27953C9.84624 4.26616 9.85951 4.25279 9.87279 4.23941C9.90509 4.20687 9.93742 4.17437 9.96977 4.14188C9.91952 4.03329 9.82477 3.91385 9.71042 3.87108C9.59097 3.8377 9.46189 3.84069 9.33894 3.83853C9.28566 3.83737 9.23242 3.83499 9.17918 3.8328C9.05069 3.82782 8.9222 3.82494 8.79365 3.82241C8.74487 3.82144 8.69609 3.82034 8.64731 3.81925C8.43096 3.81446 8.2146 3.81038 7.9982 3.80811C7.94536 3.80755 7.89253 3.80698 7.83969 3.8064C7.82656 3.80625 7.81343 3.80611 7.79991 3.80596C7.60221 3.8037 7.40482 3.7979 7.20727 3.78999C6.90211 3.77796 6.59717 3.77059 6.29177 3.77169C6.2795 3.77173 6.26722 3.77177 6.25458 3.77181C5.65564 3.77449 5.13702 3.80311 4.69451 4.24899C4.50578 4.44427 4.34316 4.66387 4.20465 4.89794C4.2203 4.93098 4.23568 4.95384 4.26161 4.97959C4.26877 4.98675 4.27592 4.99392 4.2833 5.0013C4.29487 5.01272 4.29487 5.01272 4.30666 5.02438C4.31457 5.03229 4.32248 5.0402 4.33062 5.04835C4.35586 5.0736 4.38116 5.09877 4.40648 5.12393C4.43987 5.15711 4.47319 5.19037 4.50647 5.22366C4.5181 5.23515 4.5181 5.23515 4.52996 5.24687C4.53705 5.25397 4.54414 5.26106 4.55145 5.26837C4.55774 5.27462 4.56402 5.28086 4.5705 5.28729C4.58393 5.30336 4.58393 5.30336 4.58393 5.32527C4.57558 5.32356 4.56722 5.32185 4.55862 5.32009C4.44923 5.29888 4.34015 5.28589 4.22903 5.27871C4.22008 5.27812 4.21112 5.27754 4.20189 5.27694C3.96135 5.26349 3.77845 5.30769 3.59365 5.46882C3.40038 5.64488 3.22442 5.84221 3.05731 6.04356C3.05017 6.05209 3.04303 6.06062 3.03567 6.06941C3.02238 6.08537 3.00922 6.10143 2.99622 6.11762C2.9786 6.13876 2.9786 6.13876 2.94759 6.16899C2.9085 6.16677 2.88903 6.14678 2.86216 6.11967C2.85387 6.11139 2.84559 6.10312 2.83705 6.09459C2.82802 6.0854 2.81899 6.07621 2.80968 6.06674C2.80004 6.05705 2.79039 6.04736 2.78045 6.03738C2.75364 6.01046 2.72694 5.98343 2.70025 5.95638C2.67146 5.92724 2.64258 5.8982 2.61371 5.86914C2.55716 5.8122 2.50071 5.75516 2.44428 5.69809C2.39844 5.65173 2.35258 5.60539 2.30669 5.55908C2.29348 5.54575 2.28028 5.53242 2.26708 5.51909C2.26051 5.51246 2.25394 5.50583 2.24716 5.49899C2.12284 5.37349 1.99862 5.24788 1.87444 5.12224C1.76071 5.00718 1.64684 4.89228 1.53291 4.77744C1.41602 4.65962 1.29923 4.54169 1.18255 4.42366C1.117 4.35736 1.05141 4.29109 0.985711 4.22494C0.929799 4.16863 0.873981 4.11223 0.818285 4.05571C0.789844 4.02685 0.761361 3.99804 0.73276 3.96935C0.701813 3.9383 0.671078 3.90704 0.640361 3.87576C0.626634 3.86208 0.626633 3.86208 0.612628 3.84813C0.604485 3.83977 0.596342 3.8314 0.587952 3.82279C0.580828 3.81559 0.573704 3.80839 0.566364 3.80097C0.552682 3.78029 0.552682 3.78029 0.553525 3.75838C0.56583 3.73139 0.580673 3.71497 0.601456 3.6939C0.609642 3.68553 0.617828 3.67715 0.626263 3.66852C0.639896 3.65482 0.639896 3.65482 0.653804 3.64085C0.668176 3.62622 0.668176 3.62622 0.682839 3.61129C0.709469 3.58418 0.7362 3.55718 0.762949 3.53019C0.791765 3.50109 0.820488 3.47188 0.849224 3.44269C0.905543 3.38552 0.961951 3.32843 1.01839 3.27138C1.06425 3.22503 1.11007 3.17865 1.15588 3.13225C1.16906 3.1189 1.18224 3.10555 1.19542 3.0922C1.20198 3.08556 1.20854 3.07891 1.2153 3.07207C1.33942 2.94636 1.46365 2.82076 1.58791 2.69519C1.70169 2.5802 1.81534 2.46507 1.92891 2.34986C2.04544 2.23167 2.16206 2.11358 2.2788 1.9956C2.34437 1.92932 2.4099 1.863 2.47533 1.79657C2.53101 1.74004 2.58679 1.6836 2.64269 1.62728C2.67123 1.59853 2.69973 1.56973 2.72811 1.54081C2.75882 1.50951 2.78973 1.47844 2.82067 1.44738C2.83419 1.4335 2.83419 1.4335 2.84799 1.41934C2.85626 1.4111 2.86453 1.40287 2.87305 1.39439C2.88017 1.38718 2.88729 1.37998 2.89463 1.37256C2.91508 1.35872 2.91508 1.35872 2.93792 1.36034Z" fill="#FEFEFE"/>
<path d="M2.93751 1.36034C2.97239 1.37591 2.99664 1.40387 3.02303 1.43093C3.02938 1.4373 3.03573 1.44368 3.04227 1.45026C3.06323 1.47135 3.08406 1.49257 3.10489 1.51379C3.1194 1.52847 3.13392 1.54314 3.14844 1.55781C3.17884 1.58855 3.20919 1.61935 3.23949 1.65019C3.27842 1.6898 3.31746 1.72928 3.35655 1.76873C3.38652 1.799 3.41644 1.82933 3.44635 1.85967C3.46073 1.87426 3.47513 1.88883 3.48954 1.90338C3.50962 1.92368 3.52964 1.94406 3.54963 1.96445C3.55564 1.9705 3.56165 1.97656 3.56785 1.98279C3.60863 2.02461 3.60863 2.02461 3.60863 2.04903C3.59819 2.04751 3.58775 2.04599 3.577 2.04443C3.40969 2.02282 3.23742 2.01463 3.09819 2.1235C3.00262 2.2031 2.91782 2.29504 2.83341 2.38635C2.7906 2.4322 2.74663 2.47688 2.70277 2.5217C2.62024 2.6064 2.53879 2.69207 2.45769 2.77817C2.36517 2.87628 2.27148 2.97321 2.17769 3.07008C1.9851 3.26903 1.79399 3.46938 1.60384 3.67072C1.6216 3.71476 1.65207 3.74604 1.68391 3.78006C1.68994 3.78658 1.69597 3.7931 1.70218 3.79981C1.72243 3.82166 1.74276 3.84343 1.7631 3.8652C1.77766 3.88084 1.79221 3.89648 1.80676 3.91212C1.94059 4.05569 2.07613 4.1976 2.21216 4.33904C2.30339 4.43397 2.39402 4.52936 2.48336 4.62612C2.89454 5.12537 2.89454 5.12537 3.45828 5.36124C3.56561 5.35959 3.66815 5.34433 3.77118 5.31431C3.75683 5.34641 3.74123 5.3693 3.71675 5.39427C3.71003 5.40117 3.70332 5.40807 3.6964 5.41518C3.68905 5.42262 3.6817 5.43006 3.67412 5.43773C3.66637 5.44566 3.65861 5.45359 3.65062 5.46176C3.62497 5.48796 3.59924 5.51408 3.57349 5.54018C3.55565 5.55832 3.53781 5.57647 3.51996 5.59461C3.48256 5.63261 3.44511 5.67056 3.40764 5.70848C3.35953 5.75719 3.31159 5.80607 3.2637 5.855C3.22692 5.89251 3.19002 5.9299 3.15309 5.96725C3.13535 5.98523 3.11767 6.00325 3.10002 6.02132C3.0754 6.04651 3.05062 6.07152 3.02578 6.09649C3.01847 6.10405 3.01116 6.1116 3.00363 6.11938C2.99686 6.12612 2.99008 6.13287 2.9831 6.13982C2.97726 6.14575 2.97141 6.15168 2.96539 6.15779C2.94759 6.16899 2.94759 6.16899 2.92744 6.1666C2.89855 6.15592 2.88392 6.14163 2.86215 6.11967C2.85387 6.11139 2.84559 6.10311 2.83705 6.09459C2.82802 6.0854 2.81899 6.07621 2.80968 6.06674C2.80004 6.05705 2.79039 6.04736 2.78045 6.03738C2.75364 6.01045 2.72694 5.98342 2.70025 5.95638C2.67146 5.92724 2.64258 5.8982 2.61371 5.86914C2.55716 5.8122 2.50071 5.75516 2.44428 5.69809C2.39844 5.65173 2.35258 5.60539 2.30669 5.55907C2.29348 5.54575 2.28028 5.53242 2.26708 5.51909C2.26051 5.51246 2.25393 5.50582 2.24716 5.49899C2.12284 5.37349 1.99862 5.24788 1.87444 5.12224C1.76071 5.00718 1.64684 4.89228 1.53291 4.77744C1.41602 4.65961 1.29923 4.54169 1.18255 4.42366C1.117 4.35735 1.05141 4.29109 0.985711 4.22494C0.929799 4.16863 0.873981 4.11223 0.818285 4.05571C0.789844 4.02685 0.761361 3.99804 0.73276 3.96935C0.701813 3.9383 0.671078 3.90704 0.640361 3.87576C0.626633 3.86208 0.626633 3.86208 0.612628 3.84813C0.604485 3.83977 0.596342 3.8314 0.587952 3.82279C0.580828 3.81559 0.573704 3.80839 0.566364 3.80097C0.552682 3.78029 0.552682 3.78029 0.553525 3.75838C0.56583 3.73139 0.580673 3.71497 0.601456 3.6939C0.609642 3.68553 0.617828 3.67715 0.626263 3.66852C0.639896 3.65482 0.639896 3.65482 0.653804 3.64085C0.668176 3.62622 0.668176 3.62622 0.682839 3.61129C0.709469 3.58418 0.7362 3.55718 0.762949 3.53019C0.791765 3.50108 0.820488 3.47188 0.849224 3.44269C0.905543 3.38552 0.961951 3.32843 1.01839 3.27138C1.06425 3.22503 1.11007 3.17865 1.15588 3.13225C1.16906 3.1189 1.18224 3.10555 1.19542 3.0922C1.20198 3.08556 1.20854 3.07891 1.2153 3.07207C1.33942 2.94636 1.46365 2.82076 1.58791 2.69519C1.70169 2.5802 1.81534 2.46506 1.92891 2.34986C2.04544 2.23167 2.16206 2.11358 2.2788 1.9956C2.34437 1.92932 2.4099 1.863 2.47533 1.79657C2.53101 1.74004 2.58679 1.6836 2.64269 1.62728C2.67123 1.59852 2.69973 1.56972 2.72811 1.5408C2.75882 1.50951 2.78973 1.47844 2.82067 1.44738C2.83419 1.4335 2.83419 1.4335 2.84799 1.41934C2.85626 1.4111 2.86453 1.40287 2.87305 1.39438C2.88017 1.38718 2.88729 1.37998 2.89463 1.37256C2.91508 1.35872 2.91508 1.35872 2.93751 1.36034Z" fill="#4CC1C0"/>
<path d="M10.824 2.20329C10.8578 2.21775 10.8778 2.23996 10.9037 2.26624C10.9093 2.2718 10.9148 2.27736 10.9205 2.28308C10.939 2.30175 10.9574 2.32053 10.9758 2.33931C10.989 2.35271 11.0023 2.36609 11.0155 2.37947C11.0515 2.41585 11.0874 2.45232 11.1232 2.48882C11.1607 2.52693 11.1983 2.56494 11.2359 2.60297C11.307 2.67501 11.3781 2.74713 11.4491 2.81928C11.53 2.90141 11.6109 2.98344 11.6919 3.06547C11.8585 3.23423 12.0249 3.4031 12.1913 3.57205C12.1741 3.61416 12.1476 3.64077 12.116 3.67273C12.1105 3.67832 12.105 3.6839 12.0993 3.68966C12.0808 3.70835 12.0623 3.72696 12.0438 3.74558C12.0305 3.75897 12.0173 3.77236 12.004 3.78576C11.9681 3.82212 11.9321 3.85841 11.896 3.89469C11.8584 3.93261 11.8208 3.9706 11.7832 4.00858C11.712 4.08049 11.6408 4.15234 11.5695 4.22418C11.4884 4.30597 11.4073 4.38781 11.3263 4.46967C11.1595 4.63804 10.9927 4.80634 10.8258 4.97459C10.7838 4.93867 10.7425 4.90262 10.7036 4.86316C10.6953 4.85483 10.6871 4.84649 10.6786 4.83791C10.6657 4.82476 10.6657 4.82476 10.6525 4.81134C10.6435 4.80219 10.6344 4.79304 10.6251 4.78362C10.5965 4.75462 10.5679 4.72558 10.5393 4.69654C10.5198 4.67678 10.5004 4.65702 10.4809 4.63726C10.4333 4.58903 10.3857 4.54076 10.3382 4.49246C10.3819 4.43945 10.4276 4.38958 10.4761 4.34102C10.483 4.33399 10.49 4.32696 10.4972 4.31972C10.5122 4.3046 10.5272 4.28949 10.5422 4.27439C10.566 4.25052 10.5897 4.22661 10.6134 4.20269C10.6636 4.15201 10.7139 4.10138 10.7642 4.05075C10.8227 3.99187 10.8811 3.93298 10.9396 3.87405C10.963 3.85046 10.9864 3.82691 11.0098 3.80336C11.0241 3.78898 11.0383 3.77461 11.0526 3.76024C11.0624 3.75039 11.0624 3.75039 11.0724 3.74035C11.1048 3.70857 11.1048 3.70857 11.1293 3.67067C11.1228 3.66771 11.1163 3.66476 11.1097 3.66171C11.0859 3.64876 11.0711 3.63619 11.0525 3.61665C11.0462 3.61009 11.0399 3.60353 11.0334 3.59677C11.0266 3.5896 11.0198 3.58242 11.0128 3.57502C10.9977 3.55933 10.9826 3.54363 10.9676 3.52794C10.9596 3.5196 10.9517 3.51127 10.9435 3.50269C10.9012 3.45853 10.8586 3.4147 10.816 3.37082C10.7619 3.315 10.7079 3.25908 10.6543 3.20279C10.6109 3.15727 10.5672 3.1121 10.5232 3.06716C10.5066 3.05001 10.4901 3.03275 10.4737 3.01535C10.3703 2.90004 10.3703 2.90004 10.2293 2.85465C10.1933 2.85558 10.1933 2.85558 10.1648 2.85982C10.2257 2.78507 10.2929 2.7169 10.3603 2.64821C10.3665 2.64186 10.3727 2.63551 10.3791 2.62897C10.412 2.59548 10.4448 2.56204 10.4777 2.52862C10.5049 2.50097 10.532 2.47325 10.5591 2.44546C10.5918 2.41179 10.6247 2.37825 10.6577 2.34481C10.6703 2.33206 10.6828 2.31927 10.6952 2.30643C10.7125 2.28857 10.73 2.27088 10.7475 2.25323C10.7624 2.23807 10.7624 2.23807 10.7776 2.2226C10.8042 2.20238 10.8042 2.20238 10.824 2.20329Z" fill="#56C3C2"/>
<path d="M3.15344 3.86792C3.8329 3.86792 4.51236 3.86792 5.21241 3.86792C5.13927 3.95421 5.13927 3.95421 5.10337 3.99045C5.09526 3.99867 5.08715 4.00689 5.07879 4.01536C5.0701 4.0241 5.06142 4.03284 5.05247 4.04184C5.03851 4.05597 5.03851 4.05597 5.02426 4.07038C4.99894 4.09597 4.97359 4.12155 4.94824 4.14711C4.92166 4.17391 4.89512 4.20074 4.86858 4.22757C4.8184 4.27827 4.7682 4.32894 4.71798 4.3796C4.66078 4.43732 4.6036 4.49507 4.54643 4.55283C4.42891 4.67154 4.31135 4.79022 4.19377 4.90887C4.15823 4.89313 4.1347 4.87379 4.10736 4.84612C4.09891 4.83762 4.09046 4.82913 4.08176 4.82037C4.07259 4.81104 4.06342 4.80171 4.05398 4.7921C4.04425 4.78228 4.03452 4.77246 4.02449 4.76235C3.99785 4.73546 3.97127 4.7085 3.9447 4.68153C3.91691 4.65333 3.88907 4.6252 3.86123 4.59705C3.81451 4.5498 3.76784 4.50252 3.72119 4.4552C3.6672 4.40043 3.61314 4.34572 3.55905 4.29103C3.50707 4.23848 3.45511 4.18589 3.40317 4.13328C3.38104 4.11086 3.3589 4.08846 3.33675 4.06606C3.30589 4.03484 3.27508 4.00358 3.24427 3.97231C3.23502 3.96296 3.22577 3.95361 3.21623 3.94397C3.2079 3.93551 3.19958 3.92704 3.191 3.91832C3.1837 3.91092 3.17641 3.90353 3.16889 3.89591C3.15344 3.87888 3.15344 3.87888 3.15344 3.86792Z" fill="#06B0AD"/>
<path d="M4.09626 2.54211C4.13019 2.55734 4.15321 2.57505 4.17938 2.60153C4.1871 2.60929 4.19482 2.61705 4.20277 2.62504C4.21113 2.63356 4.21948 2.64207 4.22809 2.65083C4.24142 2.66428 4.24142 2.66428 4.25501 2.67799C4.28439 2.70765 4.31368 2.73739 4.34297 2.76712C4.36331 2.78771 4.38366 2.80829 4.40401 2.82886C4.44664 2.87198 4.48923 2.91514 4.53179 2.95832C4.58106 3.00832 4.63039 3.05825 4.67975 3.10815C4.7272 3.15612 4.77462 3.20413 4.82202 3.25215C4.84222 3.2726 4.86242 3.29305 4.88264 3.3135C4.91079 3.34199 4.93891 3.37052 4.96702 3.39906C4.97546 3.40759 4.98391 3.41612 4.99261 3.42491C5.0002 3.43264 5.0078 3.44037 5.01563 3.44833C5.02561 3.45845 5.02561 3.45845 5.0358 3.46878C5.04989 3.48444 5.04989 3.48444 5.04989 3.4954C4.42765 3.4954 3.80541 3.4954 3.16431 3.4954C3.23745 3.40911 3.23745 3.40911 3.27006 3.3762C3.27744 3.36872 3.28483 3.36124 3.29243 3.35353C3.30031 3.34561 3.30818 3.33769 3.31629 3.32952C3.32476 3.32096 3.33322 3.3124 3.34194 3.30358C3.36971 3.27551 3.39751 3.24749 3.42532 3.21946C3.44466 3.19992 3.46401 3.18037 3.48335 3.16083C3.52892 3.11478 3.57452 3.06877 3.62013 3.02276C3.67209 2.97034 3.72403 2.91789 3.77596 2.86543C3.88269 2.75763 3.98946 2.64986 4.09626 2.54211Z" fill="#09B1AE"/>
<path d="M9.88303 3.13379C9.91443 3.14816 9.93684 3.16355 9.96114 3.18819C9.96765 3.19474 9.97415 3.20128 9.98085 3.20802C9.98774 3.21507 9.99463 3.22211 10.0017 3.22937C10.0089 3.23661 10.016 3.24384 10.0234 3.2513C10.0385 3.26658 10.0535 3.28188 10.0685 3.2972C10.0916 3.32076 10.1148 3.34422 10.138 3.36768C10.1527 3.38252 10.1673 3.39737 10.1819 3.41222C10.1889 3.41928 10.1958 3.42635 10.203 3.43363C10.2515 3.48315 10.2515 3.48315 10.2515 3.49538C10.0155 3.49538 9.77943 3.49538 9.53625 3.49538C9.57947 3.4444 9.62228 3.39591 9.66926 3.34887C9.67542 3.34265 9.68158 3.33644 9.68793 3.33004C9.70733 3.31048 9.72677 3.29096 9.74622 3.27144C9.7595 3.25807 9.77277 3.24469 9.78605 3.23131C9.81835 3.19878 9.85068 3.16627 9.88303 3.13379Z" fill="#2CB9B7"/>
<path d="M9.73132 3.86792C9.90298 3.86792 10.0746 3.86792 10.2515 3.86792C10.1783 3.95421 10.1783 3.95421 10.1398 3.99286C10.1277 4.00509 10.1277 4.00509 10.1153 4.01758C10.107 4.02582 10.0988 4.03406 10.0903 4.04255C10.0818 4.05109 10.0733 4.05963 10.0646 4.06843C10.0438 4.08927 10.023 4.1101 10.0022 4.1309C9.96158 4.11378 9.93576 4.08827 9.90488 4.05689C9.89739 4.04932 9.89739 4.04932 9.88976 4.04159C9.87928 4.03096 9.86882 4.0203 9.8584 4.00962C9.84236 3.9932 9.82624 3.97688 9.8101 3.96056C9.73132 3.88041 9.73132 3.88041 9.73132 3.86792Z" fill="#2FBAB8"/>
</svg>
