<svg width="34" height="35" viewBox="0 0 34 35" fill="none" xmlns="http://www.w3.org/2000/svg">
<path d="M33.9808 7.91792C33.9934 7.96458 33.9999 8.01269 34 8.06102V15.5737C34 15.6701 33.9746 15.7648 33.9262 15.8483C33.8779 15.9317 33.8084 16.0009 33.7247 16.0489L27.419 19.6792V26.8748C27.419 27.0707 27.3149 27.2514 27.1451 27.35L13.9824 34.927C13.9522 34.9442 13.9194 34.9551 13.8865 34.9668C13.8742 34.9709 13.8625 34.9784 13.8495 34.9818C13.7575 35.0061 13.6608 35.0061 13.5688 34.9818C13.5537 34.9777 13.54 34.9695 13.5256 34.964C13.4955 34.9531 13.464 34.9435 13.4353 34.927L0.275265 27.35C0.191663 27.302 0.122199 27.2328 0.0738727 27.1494C0.0255465 27.0659 6.62412e-05 26.9713 0 26.8748L0 4.33688C0 4.28758 0.00684739 4.23965 0.0191727 4.19309C0.0232811 4.17734 0.0328674 4.16296 0.0383454 4.14721C0.0486164 4.11845 0.0582028 4.08901 0.073267 4.06231C0.0835381 4.0445 0.0986023 4.03012 0.110928 4.01369C0.126677 3.99178 0.141056 3.96918 0.159544 3.95001C0.175293 3.93426 0.195835 3.92262 0.213638 3.90893C0.233496 3.8925 0.251299 3.87469 0.273895 3.86169H0.27458L6.85492 0.073176C6.93824 0.0252328 7.03268 0 7.12881 0C7.22494 0 7.31939 0.0252328 7.40271 0.073176L13.983 3.86169H13.9844C14.0063 3.87538 14.0248 3.8925 14.0447 3.90825C14.0625 3.92194 14.0823 3.93426 14.0981 3.94933C14.1173 3.96918 14.1309 3.99178 14.1474 4.01369C14.159 4.03012 14.1748 4.0445 14.1844 4.06231C14.2001 4.08969 14.209 4.11845 14.22 4.14721C14.2254 4.16296 14.235 4.17734 14.2391 4.19377C14.2517 4.24043 14.2582 4.28854 14.2583 4.33688V18.4139L19.7417 15.2567V8.06034C19.7417 8.01241 19.7485 7.96379 19.7609 7.91792C19.7657 7.90148 19.7746 7.8871 19.78 7.87136C19.791 7.8426 19.8006 7.81316 19.8156 7.78645C19.8259 7.76865 19.841 7.75427 19.8526 7.73784C19.8691 7.71593 19.8827 7.69333 19.9019 7.67416C19.9177 7.65841 19.9375 7.64677 19.9553 7.63308C19.9759 7.61664 19.9937 7.59884 20.0156 7.58583H20.0163L26.5973 3.79732C26.6806 3.74931 26.775 3.72404 26.8712 3.72404C26.9673 3.72404 27.0618 3.74931 27.1451 3.79732L33.7254 7.58583C33.7487 7.59953 33.7665 7.61664 33.787 7.63239C33.8042 7.64609 33.824 7.65841 33.8398 7.67347C33.8589 7.69333 33.8726 7.71593 33.8891 7.73784C33.9014 7.75427 33.9165 7.76865 33.926 7.78645C33.9418 7.81316 33.9507 7.8426 33.9617 7.87136C33.9678 7.8871 33.9767 7.90148 33.9808 7.91792V7.91792ZM32.903 15.2567V9.00935L30.6003 10.3349L27.419 12.1666V18.4139L32.9037 15.2567H32.903ZM26.3227 26.5578V20.3064L23.1935 22.0935L14.2576 27.1932V33.5035L26.3227 26.5578ZM1.09695 5.2852V26.5578L13.1607 33.5028V27.1939L6.85834 23.6273L6.85629 23.6259L6.85355 23.6245C6.83232 23.6122 6.81452 23.5944 6.79466 23.5793C6.77754 23.5656 6.75768 23.5547 6.74262 23.5396L6.74125 23.5376C6.72345 23.5204 6.71112 23.4992 6.69606 23.48C6.68236 23.4616 6.66593 23.4458 6.65497 23.4266L6.65429 23.4246C6.64196 23.404 6.63443 23.3794 6.62553 23.3561C6.61663 23.3356 6.60499 23.3164 6.59951 23.2945V23.2938C6.59266 23.2678 6.59129 23.2404 6.58855 23.2137C6.58581 23.1931 6.58034 23.1726 6.58034 23.1521V8.44241L3.39973 6.61012L1.09695 5.28589V5.2852ZM7.1295 1.18104L1.6468 4.33688L7.12813 7.49271L12.6101 4.33619L7.12813 1.18104H7.1295ZM9.98075 20.8761L13.1614 19.0452V5.2852L10.8586 6.6108L7.67729 8.44241V22.2024L9.98075 20.8761ZM26.8712 4.90519L21.3892 8.06102L26.8712 11.2169L32.3525 8.06034L26.8712 4.90519ZM26.3227 12.1666L23.1414 10.3349L20.8386 9.00935V15.2567L24.0193 17.0876L26.3227 18.4139V12.1666ZM13.7085 26.2449L21.7493 21.6546L25.7688 19.3608L20.2909 16.207L13.9837 19.8381L8.23535 23.1473L13.7085 26.2449Z" fill="#FF2D20"/>
</svg>
