<svg width="50" height="50" viewBox="0 0 50 50" fill="none" xmlns="http://www.w3.org/2000/svg">
<path d="M15.3051 35.6611H13.9515C13.9036 33.3762 13.7718 31.2282 13.5563 29.2154H13.5442L11.4833 35.6611H10.4527L8.40405 29.2154H8.39228C8.24031 31.1479 8.14457 33.2964 8.10481 35.6611H6.87097C6.95049 32.7856 7.15033 30.0898 7.46971 27.5735H9.14744L11.1001 33.5162H11.1121L13.0768 27.5735H14.6821C15.0336 30.5209 15.2413 33.2169 15.3051 35.6611ZM21.1756 29.6941C20.6245 32.6849 19.8973 34.858 18.9949 36.2146C18.2918 37.2588 17.5215 37.7814 16.6826 37.7814C16.4589 37.7814 16.183 37.7139 15.856 37.58V36.8588C16.0158 36.8818 16.2034 36.8949 16.4189 36.8949C16.8108 36.8949 17.1257 36.7871 17.3658 36.5711C17.653 36.3079 17.7966 36.0121 17.7966 35.6849C17.7966 35.4604 17.6847 35.0016 17.4613 34.3069L15.9758 29.6938H17.3057L18.3718 33.144C18.6114 33.9274 18.7113 34.4743 18.6713 34.7858C19.2544 33.2287 19.6616 31.5308 19.8937 29.6935H21.1756V29.6941Z" fill="#5D87A1"/>
<path d="M39.1942 35.661H35.3491V27.5734H36.6425V34.6655H39.1942V35.661ZM34.3425 35.8564L32.8557 35.1227C32.9876 35.0144 33.1137 34.8972 33.2272 34.7615C33.8591 34.0191 34.1743 32.9213 34.1743 31.4672C34.1743 28.7916 33.1244 27.4531 31.0237 27.4531C29.9936 27.4531 29.1901 27.7926 28.6154 28.472C27.9839 29.2148 27.6687 30.3087 27.6687 31.755C27.6687 33.1766 27.9481 34.2195 28.5071 34.881C29.0185 35.4803 29.7893 35.7803 30.8202 35.7803C31.2047 35.7803 31.5576 35.7332 31.879 35.6383L33.8147 36.7651L34.3425 35.8564ZM29.5262 34.0427C29.1987 33.5159 29.0349 32.6699 29.0349 31.5036C29.0349 29.4672 29.6536 28.4479 30.8921 28.4479C31.5395 28.4479 32.014 28.6917 32.3174 29.1782C32.6444 29.7058 32.8089 30.5441 32.8089 31.6943C32.8089 33.7474 32.1898 34.774 30.952 34.774C30.3044 34.7743 29.8299 34.5313 29.5262 34.0427ZM27.1051 33.4194C27.1051 34.1052 26.8534 34.6678 26.3507 35.1086C25.8474 35.5475 25.1726 35.7675 24.3269 35.7675C23.5359 35.7675 22.769 35.5148 22.0266 35.0121L22.3742 34.3176C23.013 34.6375 23.5913 34.7965 24.1106 34.7965C24.5979 34.7965 24.9787 34.6885 25.2549 34.4743C25.5309 34.2593 25.6954 33.9577 25.6954 33.5763C25.6954 33.0958 25.3604 32.6851 24.7457 32.3411C24.1788 32.0299 23.0452 31.3791 23.0452 31.3791C22.4307 30.9313 22.1231 30.4505 22.1231 29.6584C22.1231 29.0029 22.3525 28.4738 22.8116 28.0712C23.2712 27.6671 23.8642 27.4657 24.5911 27.4657C25.3418 27.4657 26.0242 27.6668 26.6389 28.0649L26.3271 28.7597C25.8014 28.5363 25.2824 28.4246 24.7705 28.4246C24.3559 28.4246 24.0358 28.5243 23.8132 28.7244C23.5887 28.9237 23.4504 29.1787 23.4504 29.4916C23.4504 29.9697 23.7925 30.3856 24.4239 30.7364C24.9983 31.0482 26.1603 31.7102 26.1603 31.7102C26.7904 32.1573 27.1051 32.6336 27.1051 33.4194Z" fill="#F8981D"/>
<path d="M40.818 24.8647C40.0359 24.8448 39.4304 24.9235 38.9221 25.1385C38.7754 25.1971 38.5421 25.1971 38.5217 25.3826C38.6009 25.4611 38.6101 25.5877 38.6789 25.696C38.796 25.8914 39.0003 26.1542 39.1868 26.2913C39.3916 26.4482 39.5972 26.6036 39.8128 26.7404C40.1928 26.9756 40.6237 27.1124 40.994 27.3467C41.2098 27.483 41.4243 27.6593 41.6404 27.8061C41.7466 27.8843 41.8146 28.0111 41.9525 28.0601V28.0302C41.8834 27.9424 41.8638 27.8152 41.796 27.7174L41.5025 27.4344C41.219 27.0535 40.8667 26.7211 40.4866 26.448C40.1738 26.2324 39.4895 25.9395 39.3626 25.579L39.3427 25.5592C39.5577 25.539 39.8128 25.4611 40.0171 25.4012C40.3495 25.3135 40.6527 25.3334 40.9938 25.2458C41.1507 25.2066 41.3064 25.1574 41.4638 25.109V25.0208C41.287 24.8448 41.1609 24.611 40.975 24.4446C40.4774 24.0148 39.9292 23.5945 39.3626 23.2427C39.0592 23.0467 38.6689 22.9207 38.3459 22.754C38.2295 22.6952 38.0333 22.6662 37.9648 22.5683C37.7895 22.3533 37.6909 22.0703 37.5638 21.8158C37.2813 21.2788 37.0069 20.6829 36.7631 20.115C36.5868 19.7342 36.4796 19.3539 36.2645 19.0015C35.2575 17.3405 34.1638 16.3345 32.483 15.3471C32.1217 15.1415 31.692 15.0538 31.2329 14.9461L30.4997 14.9074C30.3433 14.8388 30.1866 14.6529 30.0501 14.565C29.4924 14.2134 28.0566 13.4515 27.6465 14.4575C27.3823 15.0933 28.0373 15.7185 28.2622 16.041C28.4283 16.2649 28.6436 16.5197 28.7597 16.774C28.8285 16.9401 28.8479 17.1164 28.9167 17.2919C29.0731 17.7219 29.2193 18.2003 29.4249 18.6016C29.5322 18.8061 29.6491 19.0211 29.7862 19.2063C29.8646 19.3146 30.0012 19.3625 30.031 19.539C29.8947 19.7337 29.884 20.0274 29.8058 20.2717C29.4542 21.3758 29.5915 22.7436 30.0898 23.555C30.2457 23.7993 30.6177 24.3371 31.1152 24.131C31.5557 23.9552 31.4581 23.3983 31.5847 22.9099C31.6138 22.792 31.5947 22.7145 31.6533 22.6371V22.6562C31.7895 22.9296 31.9271 23.193 32.0535 23.4671C32.3566 23.9455 32.8845 24.4441 33.3242 24.7755C33.5583 24.9523 33.7438 25.2547 34.037 25.3627V25.3334H34.0176C33.9582 25.2458 33.8714 25.2066 33.7935 25.1385C33.6172 24.9625 33.422 24.7475 33.2852 24.5524C32.8756 24.0049 32.5131 23.3988 32.1913 22.7734C32.0339 22.47 31.8981 22.1383 31.7712 21.8354C31.7121 21.7185 31.7121 21.5422 31.614 21.4833C31.467 21.6981 31.2528 21.8841 31.1456 22.1472C30.9596 22.5681 30.9402 23.0857 30.8712 23.624L30.8327 23.6429C30.5214 23.5647 30.4131 23.2427 30.2949 22.9693C30.0022 22.2751 29.953 21.1608 30.207 20.3599C30.275 20.1551 30.5693 19.51 30.4519 19.3149C30.393 19.1279 30.1973 19.0214 30.0901 18.8741C29.964 18.6889 29.8259 18.4546 29.738 18.249C29.5037 17.702 29.3857 17.096 29.1333 16.5493C29.0153 16.2945 28.8105 16.0308 28.6446 15.7962C28.4584 15.5325 28.2536 15.3468 28.1063 15.0342C28.0577 14.9267 27.9894 14.7509 28.0676 14.634C28.0867 14.5556 28.1265 14.5263 28.2044 14.5066C28.331 14.3997 28.6928 14.5357 28.8196 14.5945C29.1819 14.741 29.4848 14.8778 29.7872 15.0829C29.924 15.181 30.0707 15.3667 30.2463 15.4156H30.4519C30.7639 15.4836 31.1157 15.4344 31.4095 15.5229C31.9271 15.6892 32.3961 15.9333 32.8167 16.1967C34.0966 17.0083 35.1521 18.1616 35.8646 19.539C35.9815 19.7635 36.0312 19.9691 36.1379 20.2032C36.3438 20.6824 36.5983 21.171 36.8026 21.64C37.0079 22.0991 37.2036 22.5678 37.4968 22.9492C37.643 23.1543 38.2305 23.2618 38.4939 23.3693C38.6888 23.4569 38.9922 23.5348 39.168 23.6423C39.5005 23.8472 39.8316 24.0823 40.1442 24.3075C40.2998 24.4247 40.789 24.669 40.818 24.8647ZM30.8505 16.373C30.7156 16.3716 30.5811 16.3881 30.4506 16.4221V16.4418H30.4694C30.5481 16.5979 30.6849 16.7062 30.7825 16.8425C30.8612 16.9992 30.9295 17.1545 31.0067 17.311L31.0255 17.2916C31.1633 17.194 31.2319 17.0376 31.2319 16.803C31.1725 16.7339 31.1633 16.6664 31.1139 16.5979C31.0564 16.5001 30.9295 16.4514 30.8505 16.373Z" fill="#5D87A1"/>
<path d="M41.7486 35.6598H41.9511V34.669H41.6474L41.3997 35.3451L41.1306 34.669H40.8381V35.6598H41.0293V34.9059H41.04L41.322 35.6598H41.4677L41.7486 34.9059V35.6598ZM40.1177 35.6598H40.332V34.8369H40.6124V34.6687H39.8256V34.8369H40.1172L40.1177 35.6598Z" fill="#F8981D"/>
</svg>
