<svg width="37" height="19" viewBox="0 0 37 19" fill="none" xmlns="http://www.w3.org/2000/svg">
<path fill-rule="evenodd" clip-rule="evenodd" d="M18.5 19C28.7173 19 37 14.7465 37 9.5C37 4.25345 28.7173 0 18.5 0C8.28292 0 0 4.25345 0 9.5C0 14.7465 8.28292 19 18.5 19Z" fill="#6E81B6"/>
<path fill-rule="evenodd" clip-rule="evenodd" d="M22.2492 12.5706L23.1669 7.78488C23.374 6.70475 23.2018 5.89912 22.6552 5.38999C22.1257 4.89742 21.2269 4.65781 19.9075 4.65781H18.3183L18.7728 2.28673C18.7814 2.2426 18.7801 2.1971 18.7692 2.15351C18.7584 2.10992 18.7381 2.06931 18.7099 2.03459C18.6817 1.99988 18.6462 1.97192 18.6061 1.95273C18.566 1.93354 18.5221 1.92358 18.4778 1.92358H16.2843C16.1403 1.92358 16.0166 2.02718 15.989 2.17044L15.0144 7.25105C14.9258 6.67936 14.7074 6.18791 14.358 5.78238C13.7146 5.03614 12.697 4.65781 11.3331 4.65781H7.08176C6.9377 4.65781 6.81399 4.76141 6.78647 4.90444L4.81406 15.1885C4.79683 15.2781 4.81987 15.3701 4.87714 15.4404C4.93419 15.5109 5.0192 15.5514 5.10935 15.5514H7.32001C7.46407 15.5514 7.58778 15.4478 7.6153 15.3044L8.09246 12.817H9.73804C10.6015 12.817 11.3272 12.7222 11.8937 12.5354C12.4728 12.3446 13.0059 12.0209 13.4757 11.5752C13.8553 11.2218 14.169 10.826 14.4104 10.3992L14.0164 12.4538C13.9992 12.5434 14.0222 12.6359 14.0795 12.7057C14.1365 12.7762 14.2218 12.8168 14.3117 12.8168H16.5051C16.6492 12.8168 16.7729 12.7132 16.8004 12.5701L17.8829 6.92508H19.388C20.0294 6.92508 20.2173 7.05452 20.2685 7.11005C20.3148 7.16083 20.411 7.33968 20.303 7.90344L19.4305 12.4536C19.4222 12.4977 19.4235 12.5432 19.4345 12.5867C19.4455 12.6302 19.4658 12.6708 19.494 12.7054C19.5222 12.7401 19.5576 12.768 19.5976 12.7872C19.6377 12.8064 19.6815 12.8164 19.7258 12.8165H21.9542C22.0239 12.8167 22.0915 12.7922 22.1453 12.7473C22.1992 12.7024 22.2359 12.6399 22.2492 12.5706V12.5706ZM12.08 8.61635C11.9422 9.3338 11.6827 9.84542 11.3082 10.1372C10.9279 10.4343 10.3197 10.5849 9.50024 10.5849H8.52041L9.22889 6.8904H10.4957C11.4263 6.8904 11.8013 7.09192 11.9518 7.2608C12.1605 7.49518 12.2048 7.96419 12.08 8.61635V8.61635ZM31.4885 5.78238C30.8453 5.03614 29.8277 4.65781 28.4638 4.65781H24.2125C24.0682 4.65781 23.9447 4.76141 23.9172 4.90444L21.945 15.1885C21.9275 15.2781 21.9506 15.3701 22.0078 15.4404C22.0651 15.5106 22.1503 15.5514 22.2398 15.5514H24.4507C24.595 15.5514 24.7185 15.4478 24.746 15.3044L25.2232 12.817H26.869C27.7327 12.817 28.4577 12.7222 29.0244 12.5354C29.6038 12.3446 30.1369 12.0209 30.6064 11.5752C30.9983 11.2105 31.3207 10.8004 31.565 10.3577C31.8093 9.91501 31.9844 9.42129 32.0867 8.88995C32.3379 7.57951 32.1368 6.53405 31.4885 5.78238V5.78238ZM29.3362 8.61635C29.1982 9.3338 28.9387 9.84542 28.5647 10.1372C28.1841 10.4343 27.5759 10.5849 26.7567 10.5849H25.7766L26.4849 6.8904H27.7519C28.6826 6.8904 29.0575 7.09192 29.2083 7.2608C29.4165 7.49518 29.461 7.96419 29.3362 8.61635V8.61635Z" fill="white"/>
<path fill-rule="evenodd" clip-rule="evenodd" d="M10.4329 6.58555C11.2727 6.58555 11.8326 6.74264 12.1125 7.05682C12.3921 7.371 12.4588 7.9105 12.3125 8.67464C12.1594 9.47051 11.8651 10.0386 11.4288 10.3791C10.9926 10.7195 10.3286 10.8895 9.43739 10.8895H8.09247L8.91795 6.58555H10.4329ZM5.04626 15.2466H7.25693L7.78152 12.5126H9.67519C10.5107 12.5126 11.1982 12.4235 11.7378 12.2455C12.2773 12.0676 12.7679 11.7695 13.2093 11.3508C13.5798 11.0061 13.8795 10.6252 14.109 10.209C14.3383 9.79285 14.5012 9.33383 14.5976 8.83173C14.8316 7.61264 14.6551 6.66307 14.0686 5.98303C13.4822 5.30276 12.5491 4.96274 11.2702 4.96274H7.01891L5.04626 15.2466V15.2466ZM16.2213 2.22852H18.4147L17.8904 4.96274H19.8446C21.0737 4.96274 21.9222 5.1799 22.3889 5.61445C22.8555 6.04899 22.9953 6.75329 22.8088 7.72689L21.8911 12.5126H19.6628L20.5352 7.96218C20.6343 7.44444 20.5981 7.0915 20.4256 6.90313C20.2531 6.71498 19.886 6.62068 19.325 6.62068H17.572L16.4421 12.5126H14.2486L16.2213 2.22852ZM27.6891 6.58555C28.5289 6.58555 29.0886 6.74264 29.3687 7.05682C29.6483 7.371 29.7148 7.9105 29.5685 8.67464C29.4159 9.47051 29.1215 10.0386 28.6851 10.3791C28.2491 10.7195 27.5849 10.8895 26.6941 10.8895H25.3492L26.1744 6.58555H27.6891V6.58555ZM22.3021 15.2466H24.5129L25.0373 12.5126H26.931C27.7668 12.5126 28.4542 12.4235 28.9938 12.2455C29.5334 12.0676 30.0239 11.7695 30.4653 11.3508C30.8358 11.0061 31.1355 10.6252 31.3648 10.209C31.5941 9.79285 31.7572 9.33383 31.8539 8.83173C32.0876 7.61264 31.9111 6.66307 31.3248 5.98303C30.738 5.30276 29.8052 4.96274 28.5262 4.96274H24.2749L22.3021 15.2466V15.2466Z" fill="black"/>
</svg>
