<svg width="34" height="35" viewBox="0 0 34 35" fill="none" xmlns="http://www.w3.org/2000/svg">
<path d="M33.91 20.9658C33.7057 20.3478 33.1703 19.9173 32.4781 19.8141C32.1516 19.7654 31.7778 19.7861 31.3354 19.8772C30.5643 20.0361 29.9922 20.0965 29.5747 20.1082C31.1506 17.4516 32.432 14.4222 33.1697 11.5705C34.3625 6.9593 33.7251 4.85862 32.9802 3.90845C31.009 1.39343 28.1329 0.0423418 24.6632 0.00100091C22.8123 -0.021597 21.1874 0.343293 20.3398 0.605695C19.5506 0.466651 18.702 0.389021 17.8116 0.374664C16.1426 0.348078 14.6679 0.711373 13.4078 1.45804C12.7102 1.22249 11.5905 0.890429 10.2976 0.67854C7.25657 0.180056 4.80561 0.568475 3.01287 1.83303C0.842023 3.3641 -0.164318 6.02428 0.0218001 9.73964C0.0809105 10.9193 0.741775 14.5083 1.78233 17.9121C2.38036 19.8686 3.01806 21.4932 3.67772 22.7414C4.61324 24.5114 5.61425 25.5537 6.73802 25.928C7.36786 26.1375 8.51226 26.2842 9.7159 25.2833C9.86847 25.4678 10.072 25.6511 10.3422 25.8214C10.6852 26.0374 11.1047 26.2139 11.5237 26.3185C13.0335 26.6954 14.4478 26.6012 15.6544 26.0729C15.6618 26.2872 15.6675 26.4919 15.6723 26.6687C15.6803 26.9554 15.6883 27.2366 15.6988 27.4995C15.7703 29.2773 15.8915 30.6596 16.2504 31.6268C16.2701 31.68 16.2966 31.7611 16.3246 31.8471C16.5036 32.3945 16.803 33.3109 17.5648 34.0286C18.3536 34.772 19.3078 35 20.1816 35C20.6199 35 21.0381 34.9426 21.4048 34.8641C22.7122 34.5843 24.197 34.1582 25.2711 32.6311C26.2866 31.1875 26.7803 29.0131 26.8696 25.5872C26.8812 25.4903 26.8919 25.3977 26.9021 25.3096L26.9234 25.1286L27.1627 25.1496L27.2243 25.1537C28.5559 25.2143 30.1841 24.9324 31.184 24.4686C31.9742 24.1025 34.5062 22.7677 33.91 20.9658" fill="black"/>
<path d="M31.6332 21.3163C27.6739 22.1318 27.4017 20.7933 27.4017 20.7933C31.582 14.5997 33.3296 6.73791 31.8216 4.81376C27.7073 -0.434944 20.5854 2.04737 20.4666 2.11171L20.4284 2.11862C19.6461 1.95645 18.7707 1.85994 17.7868 1.84386C15.9953 1.81462 14.6363 2.31283 13.6051 3.09366C13.6051 3.09366 0.900338 -2.13232 1.49131 9.66621C1.61699 12.1762 5.09438 28.6582 9.24197 23.6799C10.7579 21.8594 12.2228 20.3202 12.2228 20.3202C12.9502 20.8027 13.8212 21.0489 14.7342 20.9605L14.8051 20.9004C14.783 21.1264 14.7932 21.3475 14.8335 21.6092C13.765 22.8012 14.079 23.0104 11.9431 23.4495C9.78168 23.8943 11.0514 24.686 11.8804 24.8931C12.8854 25.1439 15.2104 25.4994 16.7813 23.3035L16.7188 23.5541C17.1373 23.889 17.4313 25.7319 17.382 27.4027C17.3328 29.0733 17.2999 30.2204 17.6297 31.1163C17.9597 32.0123 18.2884 34.0281 21.0964 33.4274C23.4426 32.9254 24.6585 31.6244 24.8277 29.4542C24.9476 27.9114 25.2194 28.1395 25.2364 26.7601L25.4543 26.1071C25.7056 24.0158 25.4943 23.341 26.9397 23.6549L27.2912 23.6857C28.3549 23.734 29.7474 23.5148 30.5647 23.1355C32.3245 22.3201 33.3682 20.9585 31.633 21.3163H31.6332" fill="#336791"/>
<path d="M14.3487 10.7886C13.992 10.739 13.6688 10.7848 13.5054 10.9085C13.4135 10.978 13.385 11.0585 13.3773 11.114C13.3568 11.2609 13.4598 11.4233 13.5232 11.507C13.7024 11.7442 13.9641 11.9071 14.2232 11.943C14.2607 11.9484 14.2982 11.9507 14.3353 11.9507C14.7673 11.9507 15.1602 11.6148 15.1948 11.3669C15.2381 11.0564 14.7866 10.8494 14.3487 10.7887V10.7886ZM26.1687 10.7984C26.1346 10.555 25.7009 10.4856 25.2892 10.5428C24.8781 10.5999 24.4795 10.7852 24.5128 11.0292C24.5394 11.2188 24.8825 11.5427 25.2886 11.5427C25.3229 11.5427 25.3575 11.5404 25.3924 11.5355C25.6635 11.498 25.8624 11.3261 25.9569 11.2271C26.1007 11.0761 26.184 10.9078 26.1687 10.7984" fill="white"/>
<path d="M32.9507 21.2235C32.7997 20.7677 32.3138 20.621 31.5065 20.7875C29.1095 21.2814 28.251 20.9393 27.9692 20.732C29.8324 17.898 31.3651 14.4721 32.192 11.2759C32.5837 9.76179 32.8 8.35567 32.8177 7.20955C32.8373 5.95164 32.6227 5.02725 32.1801 4.46257C30.3959 2.18615 27.7772 0.965066 24.6073 0.931567C22.4281 0.907108 20.5869 1.46395 20.23 1.62054C19.4783 1.43391 18.6589 1.31932 17.7668 1.3047C16.1308 1.27825 14.7167 1.66932 13.5459 2.4665C13.0374 2.27748 11.7231 1.82698 10.1158 1.56843C7.33708 1.12179 5.12896 1.46023 3.55321 2.57484C1.67299 3.90493 0.804969 6.2825 0.973114 9.64136C1.0297 10.7714 1.67459 14.2478 2.69225 17.577C4.03182 21.9589 5.48801 24.4394 7.02009 24.9498C7.19942 25.0094 7.40618 25.0512 7.63423 25.0512C8.19312 25.0512 8.87835 24.7997 9.59127 23.9439C10.4608 22.9023 11.3603 21.8861 12.2887 20.8963C12.8909 21.2191 13.5526 21.3993 14.2293 21.4174C14.2306 21.4351 14.2324 21.4528 14.234 21.4703C14.1175 21.609 14.0034 21.7497 13.8918 21.8924C13.4229 22.4867 13.3253 22.6105 11.816 22.9207C11.3867 23.0093 10.2464 23.2439 10.2296 24.042C10.2115 24.914 11.5776 25.2802 11.7332 25.319C12.2756 25.4546 12.7981 25.5215 13.2965 25.5215C14.5084 25.5215 15.5749 25.1238 16.4272 24.3542C16.401 27.4629 16.5308 30.5261 16.9046 31.4594C17.2108 32.2235 17.9587 34.0908 20.3213 34.0906C20.668 34.0906 21.0495 34.0504 21.4693 33.9605C23.935 33.4328 25.0058 32.3446 25.42 29.9456C25.6416 28.6635 26.022 25.602 26.2009 23.9598C26.5785 24.0775 27.0646 24.1313 27.59 24.1312C28.686 24.1312 29.9506 23.8987 30.7436 23.5311C31.6346 23.118 33.2423 22.1043 32.9507 21.2235V21.2235ZM27.0788 10.1265C27.0707 10.6113 27.0038 11.0515 26.933 11.5109C26.8567 12.005 26.7779 12.5158 26.7581 13.1359C26.7385 13.7394 26.814 14.3669 26.887 14.9737C27.0345 16.1993 27.1858 17.4611 26.5999 18.7061C26.5026 18.5339 26.4159 18.3559 26.3403 18.1732C26.2675 17.9969 26.1093 17.7138 25.8903 17.3219C25.0384 15.7964 23.0434 12.224 24.0647 10.7663C24.3689 10.3325 25.1409 9.88635 27.0788 10.1265V10.1265ZM24.7298 1.91325C27.5701 1.97586 29.8168 3.03677 31.4074 5.06633C32.6275 6.62307 31.284 13.7065 27.3949 19.8174C27.3557 19.7677 27.3164 19.7182 27.2769 19.6689L27.2276 19.6075C28.2326 17.9502 28.0361 16.3106 27.8612 14.8568C27.7893 14.2603 27.7214 13.6968 27.7387 13.1674C27.7566 12.6065 27.8309 12.1253 27.9027 11.66C27.991 11.0867 28.0809 10.4934 28.0561 9.79409C28.0746 9.72072 28.0821 9.63405 28.0724 9.53116C28.0091 8.86053 27.2423 6.85343 25.6793 5.03682C24.8243 4.04318 23.5776 2.93122 21.8752 2.18124C22.6074 2.0297 23.6087 1.88839 24.7298 1.91325V1.91325ZM8.83681 23.3175C8.05133 24.2605 7.50895 24.0797 7.33056 24.0204C6.16832 23.6334 4.81969 21.1805 3.63069 17.291C2.60185 13.9255 2.00063 10.5413 1.95296 9.59231C1.80279 6.59103 2.53142 4.49939 4.11875 3.37534C6.70204 1.54623 10.9492 2.64104 12.6558 3.19628C12.6313 3.22048 12.6058 3.24307 12.5815 3.26767C9.78098 6.09162 9.84741 10.9164 9.85434 11.2114C9.85407 11.3252 9.86366 11.4863 9.8767 11.7079C9.9249 12.5194 10.0146 14.0298 9.77499 15.7402C9.55239 17.3296 10.0431 18.8853 11.1211 20.0084C11.2317 20.1234 11.348 20.2329 11.4695 20.3364C10.9897 20.8496 9.94686 21.9842 8.83681 23.3175V23.3175ZM11.8295 19.3306C10.9607 18.4253 10.5661 17.1662 10.7467 15.8757C10.9997 14.069 10.9063 12.4953 10.8562 11.6499C10.8491 11.5316 10.8428 11.4279 10.8392 11.3462C11.2484 10.9839 13.1443 9.96969 14.4964 10.279C15.1133 10.4201 15.4893 10.8396 15.6456 11.5611C16.4545 15.2968 15.7526 16.8538 15.1887 18.1051C15.0724 18.3628 14.9626 18.6065 14.8689 18.8585L14.7962 19.0534C14.6122 19.5461 14.441 20.0041 14.3349 20.4391C13.4112 20.4364 12.5127 20.0424 11.8295 19.3304V19.3306ZM11.9713 24.3686C11.7015 24.3013 11.459 24.1845 11.3167 24.0876C11.4355 24.0317 11.6471 23.9557 12.014 23.8802C13.7896 23.5153 14.0638 23.2577 14.6627 22.4985C14.7999 22.3244 14.9555 22.1271 15.1711 21.8868L15.1714 21.8865C15.4923 21.5276 15.6392 21.5885 15.9054 21.6988C16.1212 21.7879 16.3315 22.058 16.4167 22.3552C16.457 22.4956 16.5023 22.762 16.3541 22.9694C15.1032 24.7182 13.2804 24.6957 11.9713 24.3686V24.3686ZM21.2637 33.0026C19.0916 33.4673 18.3225 32.3607 17.8156 31.0956C17.4885 30.2789 17.3277 26.596 17.4418 22.5287C17.4432 22.4746 17.4355 22.4224 17.4206 22.3732C17.4073 22.2761 17.387 22.18 17.3599 22.0858C17.1903 21.494 16.7769 20.999 16.281 20.7937C16.084 20.7122 15.7224 20.5627 15.2878 20.6737C15.3805 20.2924 15.5412 19.8619 15.7155 19.3957L15.7886 19.1996C15.8708 18.9786 15.9741 18.7495 16.0833 18.5071C16.6735 17.198 17.4817 15.4049 16.6045 11.3542C16.2759 9.8369 15.1787 9.09595 13.5153 9.26809C12.5182 9.37111 11.6058 9.77282 11.1508 10.0032C11.0529 10.0526 10.9635 10.1005 10.8799 10.147C11.0069 8.61833 11.4867 5.76142 13.2815 3.95385C14.4117 2.81597 15.9168 2.25395 17.7505 2.28426C21.3637 2.34328 23.6807 4.19471 24.9884 5.73762C26.1152 7.06705 26.7253 8.40631 26.9688 9.12865C25.1376 8.94268 23.8922 9.30359 23.2608 10.2048C21.8873 12.1653 24.0122 15.9703 25.0335 17.799C25.2208 18.1341 25.3824 18.4237 25.4333 18.5468C25.7659 19.3516 26.1964 19.8889 26.5107 20.281C26.6071 20.4012 26.7006 20.5178 26.7717 20.6196C26.217 20.7792 25.2208 21.1481 25.3116 22.992C25.2384 23.9172 24.7177 28.2488 24.4532 29.7792C24.104 31.8011 23.3588 32.5541 21.2637 33.0027V33.0026ZM30.3305 22.6426C29.7634 22.9054 28.8143 23.1026 27.9127 23.145C26.9169 23.1915 26.4099 23.0336 26.2907 22.9364C26.2347 21.7874 26.663 21.6673 27.1163 21.5403C27.1876 21.5203 27.2571 21.5008 27.3242 21.4774C27.3658 21.5113 27.4115 21.5449 27.4616 21.5779C28.2619 22.1053 29.6895 22.1622 31.705 21.7468L31.7271 21.7424C31.4552 21.9962 30.9901 22.3368 30.3305 22.6426Z" fill="white"/>
</svg>
