<svg width="58" height="35" viewBox="0 0 58 35" fill="none" xmlns="http://www.w3.org/2000/svg">
<path d="M29 0C21.2664 0 16.4332 3.88897 14.4996 11.6662C17.4 7.77721 20.7834 6.31939 24.6498 7.29127C26.8561 7.8458 28.4328 9.45611 30.1786 11.2379C33.0216 14.1404 36.3122 17.4996 43.5004 17.4996C51.2332 17.4996 56.0671 13.6107 58 5.83273C55.1004 9.7217 51.717 11.1802 47.8498 10.2084C45.6443 9.65384 44.0675 8.04353 42.3218 6.26175C39.4787 3.35925 36.1874 0 29 0V0ZM14.4996 17.4996C6.76679 17.4996 1.93285 21.3886 0 29.1665C2.89964 25.2776 6.28303 23.819 10.1502 24.7916C12.3557 25.3469 13.9325 26.9565 15.6782 28.7375C18.5213 31.64 21.8126 35 29 35C36.7336 35 41.5668 31.111 43.5004 23.3331C40.6 27.2221 37.2166 28.6806 33.3502 27.708C31.1439 27.1542 29.5672 25.5432 27.8214 23.7621C24.9784 20.8596 21.6878 17.4996 14.4996 17.4996V17.4996Z" fill="#06B6D4"/>
</svg>
