<svg width="35" height="35" viewBox="0 0 35 35" fill="none" xmlns="http://www.w3.org/2000/svg">
<path d="M0 0H35V35H0V0Z" fill="#017ACB"/>
<path d="M16.8055 12.961H18.4844V15.8594H13.9453V28.7547L13.825 28.7875C13.661 28.8313 11.5008 28.8313 11.0359 28.7821L10.6641 28.7492V15.8594H6.125V12.961L7.56328 12.9446C8.35079 12.9336 10.3742 12.9336 12.0586 12.9446C13.743 12.9555 15.8758 12.961 16.8055 12.961V12.961ZM29.6188 27.3875C28.9516 28.093 28.2352 28.4867 27.043 28.8094C26.5235 28.9516 26.436 28.9571 25.2657 28.9516C24.0953 28.9461 24.0024 28.9461 23.4336 28.7985C21.9625 28.4211 20.7758 27.6828 19.9664 26.6383C19.7367 26.343 19.3594 25.7305 19.3594 25.6539C19.3594 25.6321 19.4141 25.5828 19.4852 25.55C19.5563 25.5172 19.7039 25.4242 19.8242 25.3531C19.9446 25.2821 20.1633 25.1508 20.311 25.0742C20.4586 24.9977 20.8852 24.7461 21.2571 24.5219C21.6289 24.2977 21.968 24.1172 22.0063 24.1172C22.0446 24.1172 22.1157 24.1938 22.1703 24.2867C22.4985 24.8391 23.2641 25.5446 23.8055 25.7852C24.1391 25.9274 24.8774 26.086 25.2328 26.086C25.561 26.086 26.1625 25.9438 26.4852 25.7961C26.8297 25.6375 27.0047 25.4789 27.2125 25.1617C27.3547 24.9375 27.3711 24.8774 27.3657 24.4508C27.3657 24.0571 27.3438 23.9477 27.2344 23.7672C26.9282 23.2641 26.5125 23.0016 24.8282 22.2578C23.0891 21.4867 22.3071 21.0274 21.6727 20.4094C21.2024 19.95 21.1094 19.8242 20.8141 19.25C20.4313 18.5117 20.3821 18.2711 20.3766 17.1719C20.3711 16.4008 20.3875 16.1492 20.4696 15.8867C20.5844 15.493 20.9563 14.7328 21.1258 14.5414C21.4758 14.1313 21.6016 14.0055 21.8477 13.8031C22.5914 13.1906 23.7508 12.786 24.861 12.7477C24.9868 12.7477 25.4024 12.7696 25.7907 12.7969C26.9063 12.8899 27.6664 13.1633 28.3993 13.7485C28.9516 14.186 29.7883 15.2141 29.7063 15.3508C29.6516 15.4328 27.4696 16.8875 27.3274 16.9313C27.2399 16.9586 27.1797 16.9258 27.0594 16.7836C26.3157 15.8922 26.0149 15.7008 25.293 15.6571C24.7789 15.6242 24.5055 15.6844 24.161 15.9141C23.8 16.1547 23.625 16.5211 23.625 17.0297C23.6305 17.7735 23.9149 18.1235 24.9649 18.643C25.643 18.9766 26.2227 19.25 26.2664 19.25C26.3321 19.25 27.7375 19.95 28.1039 20.1688C29.8102 21.1696 30.5047 22.1977 30.6852 23.9696C30.8164 25.3039 30.4391 26.5235 29.6188 27.3875V27.3875Z" fill="white"/>
</svg>
