<svg width="44" height="35" viewBox="0 0 44 35" fill="none" xmlns="http://www.w3.org/2000/svg">
<path d="M41.017 9.47877L34.0585 2.19824H10.2696L2.96814 9.47877L21.32 31.6277L41.017 9.47877Z" fill="#142641"/>
<path d="M35.8444 3.10132L36.3776 2.79272L39.0348 7.40698L15.1383 21.2361H24.4899V20.5027H31.8893V21.2986H30.5602V24.0623H28.4781V26.405H14.649V24.0623H12.7086V22.6414L12.6022 22.7039L9.94397 18.0896L29.8668 6.5603L29.5006 5.92456L35.4781 2.46558L35.8444 3.10132ZM19.7155 0.719482L19.9088 0.608154L20.3239 1.32983L20.4596 1.25073L20.8395 1.91089L21.9801 1.25073L22.3463 1.88745L23.0973 1.45288L23.4117 1.9978L24.7018 1.25073L25.2477 2.19897L5.3551 13.7107L4.8092 12.7625L4.5592 12.3279L4.49475 12.365L4.23108 11.906L4.06506 12.0027L3.64905 11.281L3.51428 11.3591L3.16077 10.7449L2.96838 10.8562L2.42151 9.90796L19.3619 0.106201L19.7155 0.719482Z" fill="#274D82"/>
<path fill-rule="evenodd" clip-rule="evenodd" d="M34.9947 0H9.36415L0 9.33788L21.2599 35L22.9563 33.0926L44 9.42538L34.9947 0ZM34.0585 2.19849L41.0169 9.47902L21.32 31.628L2.96814 9.47902L10.2696 2.19849H34.0585Z" fill="#3068B7"/>
</svg>
